<svg width="31" height="31" viewBox="0 0 31 31" fill="none" xmlns="http://www.w3.org/2000/svg">
<g clip-path="url(#clip0_32_38)">
<path d="M31 15.5C31 24.0604 24.0604 31 15.5 31C6.93959 31 0 24.0604 0 15.5C0 6.93959 6.93959 0 15.5 0C24.0604 0 31 6.93959 31 15.5Z" fill="#5AF2A6"/>
<path d="M13.6212 14.0909C13.9343 13.9343 14.0909 13.6212 13.6212 12.6818C13.2455 11.9303 12.8384 11.4293 12.6818 11.2727C12.5253 11.1162 12.1182 10.897 11.7424 11.2727C11.2727 11.7424 10.803 12.2121 10.803 13.6212C10.803 14.2475 11.0848 15.7818 12.2121 16.9091C13.6212 18.3182 17.3788 21.1364 19.7273 19.7273C20.6667 19.2576 20.6667 18.3182 20.197 17.8485C19.7273 17.3788 18.3182 16.4394 17.8485 17.3788C17.7455 17.4818 17.6651 17.5847 17.5925 17.6778C17.3336 18.0093 17.1729 18.2152 16.4394 17.8485C15.5 17.3788 12.2121 15.0303 13.6212 14.0909Z" fill="white"/>
<path fill-rule="evenodd" clip-rule="evenodd" d="M15.5 25.3636C20.9475 25.3636 25.3636 20.9475 25.3636 15.5C25.3636 10.0525 20.9475 5.63636 15.5 5.63636C10.0525 5.63636 5.63636 10.0525 5.63636 15.5C5.63636 17.7788 6.21738 19.4663 7.51515 21.1364L6.10606 25.3636L10.3333 23.9545C11.8477 24.9014 13.5823 25.3636 15.5 25.3636ZM15.5 23.4848C19.9099 23.4848 23.4848 19.9099 23.4848 15.5C23.4848 11.0901 19.9099 7.51515 15.5 7.51515C11.0901 7.51515 7.51515 11.0901 7.51515 15.5C7.51515 17.3447 8.34337 19.3147 9.39394 20.6667L8.45455 23.0152L10.803 22.0758C12.029 22.8423 13.9476 23.4848 15.5 23.4848Z" fill="white"/>
</g>
<defs>
<clipPath id="clip0_32_38">
<rect width="31" height="31" fill="white"/>
</clipPath>
</defs>
</svg>
